<svg width="148" height="52" viewBox="0 0 148 52" fill="none" xmlns="http://www.w3.org/2000/svg">
<path d="M42.5433 0.347168H9.41079C4.21445 0.347168 0 4.50803 0 9.63492V42.3123C0 47.4323 4.21445 51.5885 9.41079 51.5885H42.5433C47.742 51.5885 51.9587 47.4323 51.9587 42.3123V9.63492C51.9587 4.50803 47.742 0.347168 42.5433 0.347168ZM46.4406 41.0932C46.4406 43.9269 44.1199 46.2316 41.2535 46.2316H33.9745V26.1289H41.5661V20.6891H28.4586V46.2316H23.5025V20.6891H10.3903V26.1289H17.9866V46.2316H10.7075C7.84116 46.2316 5.51587 43.9292 5.51587 41.0932V10.8448C5.51587 8.01106 7.83882 5.71097 10.7075 5.71097H41.2559C44.1223 5.71097 46.4429 8.01106 46.4429 10.8448V41.0932H46.4406ZM10.388 15.8774H41.5637V10.4377H10.388V15.8774Z" fill="#E31F26"/>
<path d="M62.3867 36.1985C62.3867 31.5891 63.6671 27.9964 66.2257 25.4249C68.7819 22.8626 72.3456 21.5723 76.9076 21.5723C81.4695 21.5723 85.1988 22.835 87.7294 25.3605C90.2599 27.8837 91.5287 31.4166 91.5287 35.9639C91.5287 39.2622 90.9736 41.974 89.8681 44.0832C88.7649 46.1947 87.1673 47.8393 85.0752 49.0123C82.9832 50.19 80.378 50.7788 77.2574 50.7788C74.1368 50.7788 71.464 50.2728 69.3836 49.2538C67.3055 48.2418 65.6193 46.6363 64.3272 44.4397C63.0374 42.2455 62.3891 39.4968 62.3891 36.1985H62.3867ZM71.0792 36.2353C71.0792 39.0851 71.6063 41.1322 72.6605 42.3812C73.717 43.6278 75.1513 44.2488 76.9659 44.2488C78.7804 44.2488 80.2777 43.6393 81.2993 42.418C82.3231 41.2012 82.8362 39.0115 82.8362 35.8512C82.8362 33.19 82.2998 31.2487 81.2339 30.0251C80.1634 28.8014 78.7174 28.1827 76.8866 28.1827C75.0557 28.1827 73.7263 28.8037 72.6651 30.0527C71.6039 31.2947 71.0745 33.3579 71.0745 36.2353H71.0792Z" fill="white"/>
<path d="M93.2147 22.0581H119.628V29.0297H110.765V50.2986H102.075V29.0297H93.2124V22.0581H93.2147Z" fill="white"/>
<path d="M121.587 22.0581H148V29.0297H139.137V50.2986H130.445V29.0297H121.587V22.0581Z" fill="white"/>
</svg>
