<svg width="133" height="63" viewBox="0 0 133 63" fill="none" xmlns="http://www.w3.org/2000/svg">
<path d="M89.9771 38.3489V31.3928H95.1794V32.5714H91.3898V34.1126H94.9134V35.2829H91.3898V37.1785H95.3123V38.3489H89.9771Z" fill="#4C4D4E"/>
<path d="M95.8525 38.3489L97.6892 35.7527L95.9356 33.3049H97.5811L98.4786 34.6895L99.426 33.3049H101.005L99.2847 35.695L101.163 38.3489H99.5091L98.4786 36.7912L97.4315 38.3489H95.8609H95.8525Z" fill="#4C4D4E"/>
<path d="M101.919 33.305H103.174V34.0467C103.34 33.7912 103.556 33.5852 103.831 33.4286C104.105 33.272 104.412 33.1896 104.753 33.1896C105.343 33.1896 105.842 33.4203 106.257 33.8819C106.673 34.3434 106.872 34.978 106.872 35.8022C106.872 36.6264 106.664 37.3022 106.249 37.7638C105.833 38.2335 105.335 38.4643 104.745 38.4643C104.462 38.4643 104.213 38.4066 103.98 38.2995C103.756 38.1923 103.515 38.0028 103.257 37.7308V40.2692H101.911V33.3132L101.919 33.305ZM103.249 35.7445C103.249 36.3132 103.365 36.7253 103.59 36.9973C103.814 37.2692 104.088 37.4011 104.421 37.4011C104.753 37.4011 104.994 37.2775 105.202 37.0302C105.41 36.783 105.509 36.3709 105.509 35.8105C105.509 35.283 105.401 34.8874 105.185 34.6319C104.969 34.3764 104.703 34.2445 104.387 34.2445C104.072 34.2445 103.789 34.3681 103.573 34.6236C103.357 34.8709 103.249 35.25 103.249 35.7445Z" fill="#4C4D4E"/>
<path d="M110.886 36.7418L112.224 36.9643C112.05 37.4506 111.784 37.8214 111.41 38.0769C111.036 38.3324 110.57 38.4561 110.014 38.4561C109.133 38.4561 108.476 38.1676 108.052 37.5989C107.72 37.1374 107.554 36.5605 107.554 35.8599C107.554 35.0275 107.77 34.3681 108.21 33.8984C108.651 33.4286 109.207 33.1896 109.881 33.1896C110.637 33.1896 111.235 33.4368 111.667 33.9313C112.108 34.4258 112.316 35.1841 112.291 36.2061H108.925C108.933 36.6017 109.041 36.9066 109.249 37.1291C109.457 37.3517 109.714 37.4588 110.022 37.4588C110.23 37.4588 110.412 37.4011 110.554 37.2857C110.695 37.1703 110.803 36.989 110.878 36.7335L110.886 36.7418ZM110.961 35.3984C110.953 35.011 110.853 34.7225 110.662 34.5165C110.471 34.3187 110.238 34.2116 109.964 34.2116C109.673 34.2116 109.424 34.3187 109.232 34.533C109.041 34.7473 108.95 35.0357 108.95 35.3984H110.961Z" fill="#4C4D4E"/>
<path d="M114.684 38.3489H113.338V33.305H114.584V34.022C114.8 33.6841 114.991 33.4616 115.158 33.3544C115.324 33.2473 115.523 33.1896 115.739 33.1896C116.047 33.1896 116.338 33.272 116.629 33.4451L116.213 34.6072C115.989 34.4588 115.773 34.3929 115.581 34.3929C115.39 34.3929 115.232 34.4423 115.099 34.5495C114.966 34.6566 114.867 34.8379 114.792 35.1099C114.717 35.3819 114.676 35.9423 114.676 36.7995V38.3572L114.684 38.3489Z" fill="#4C4D4E"/>
<path d="M119.537 33.305V34.3682H118.615V36.4039C118.615 36.816 118.623 37.055 118.64 37.1209C118.656 37.1869 118.698 37.2446 118.756 37.2858C118.823 37.327 118.897 37.3517 118.98 37.3517C119.105 37.3517 119.288 37.3105 119.521 37.2198L119.637 38.2583C119.321 38.3902 118.972 38.4561 118.573 38.4561C118.332 38.4561 118.116 38.4149 117.917 38.3325C117.726 38.2501 117.576 38.1512 117.485 38.0193C117.393 37.8874 117.327 37.7143 117.293 37.5001C117.269 37.3435 117.252 37.0303 117.252 36.5605V34.3599H116.637V33.2968H117.252V32.2995L118.598 31.5248V33.305H119.521H119.537Z" fill="#4C4D4E"/>
<path d="M120.476 32.6209V31.3846H121.823V32.6209H120.476ZM120.476 38.3489V33.305H121.823V38.3489H120.476Z" fill="#4C4D4E"/>
<path d="M122.72 36.9067L124.066 36.7006C124.124 36.9561 124.241 37.1539 124.415 37.294C124.59 37.4259 124.839 37.4918 125.155 37.4918C125.504 37.4918 125.762 37.4259 125.936 37.3023C126.052 37.2116 126.111 37.0962 126.111 36.9479C126.111 36.849 126.077 36.7666 126.011 36.6924C125.944 36.6265 125.795 36.5688 125.562 36.5193C124.473 36.2803 123.792 36.066 123.501 35.8682C123.102 35.5962 122.894 35.2171 122.894 34.7308C122.894 34.294 123.069 33.9232 123.418 33.6265C123.767 33.3297 124.307 33.1814 125.039 33.1814C125.77 33.1814 126.252 33.2968 126.593 33.5193C126.933 33.7418 127.166 34.0798 127.291 34.5166L126.019 34.7473C125.961 34.5495 125.861 34.4012 125.712 34.294C125.562 34.1869 125.346 34.1374 125.063 34.1374C124.706 34.1374 124.457 34.1869 124.299 34.2858C124.199 34.3517 124.149 34.4424 124.149 34.5578C124.149 34.6567 124.191 34.7308 124.282 34.7968C124.407 34.8874 124.822 35.0111 125.537 35.1677C126.252 35.3325 126.75 35.5303 127.041 35.7611C127.324 36.0001 127.465 36.3297 127.465 36.7501C127.465 37.2116 127.274 37.6072 126.883 37.9451C126.493 38.2748 125.919 38.4396 125.155 38.4396C124.465 38.4396 123.917 38.2995 123.509 38.0193C123.102 37.7391 122.845 37.36 122.72 36.8819V36.9067Z" fill="#4C4D4E"/>
<path d="M131.587 36.7418L132.925 36.9643C132.751 37.4506 132.485 37.8214 132.111 38.0769C131.737 38.3324 131.271 38.4561 130.715 38.4561C129.834 38.4561 129.177 38.1676 128.753 37.5989C128.421 37.1374 128.246 36.5605 128.246 35.8599C128.246 35.0275 128.471 34.3681 128.911 33.8984C129.352 33.4286 129.908 33.1896 130.582 33.1896C131.338 33.1896 131.936 33.4368 132.368 33.9313C132.809 34.4258 133.016 35.1841 132.992 36.2061H129.626C129.634 36.6017 129.742 36.9066 129.95 37.1291C130.158 37.3517 130.415 37.4588 130.723 37.4588C130.931 37.4588 131.113 37.4011 131.255 37.2857C131.396 37.1703 131.504 36.989 131.579 36.7335L131.587 36.7418ZM131.67 35.3984C131.662 35.011 131.562 34.7225 131.371 34.5165C131.18 34.3187 130.947 34.2116 130.673 34.2116C130.382 34.2116 130.133 34.3187 129.942 34.533C129.751 34.7473 129.659 35.0357 129.659 35.3984H131.67Z" fill="#4C4D4E"/>
<path d="M89.6116 47.1923L90.9911 47.0605C91.0742 47.522 91.2404 47.8599 91.498 48.0742C91.7473 48.2885 92.0964 48.3956 92.5285 48.3956C92.9856 48.3956 93.3263 48.2967 93.559 48.1072C93.7917 47.9176 93.908 47.6951 93.908 47.4314C93.908 47.2665 93.8582 47.1264 93.7584 47.011C93.6587 46.8956 93.4925 46.7967 93.2515 46.7061C93.0853 46.6484 92.7113 46.5495 92.1213 46.4011C91.3651 46.2116 90.8249 45.989 90.5257 45.7088C90.0936 45.3297 89.8775 44.8599 89.8775 44.3077C89.8775 43.9533 89.9772 43.6237 90.185 43.3105C90.3844 43.0055 90.6836 42.7665 91.0576 42.6017C91.4398 42.4368 91.8969 42.3627 92.4371 42.3627C93.318 42.3627 93.9828 42.5522 94.4233 42.9396C94.872 43.3187 95.1047 43.8297 95.1213 44.4726L93.7086 44.5385C93.6504 44.1841 93.5174 43.9204 93.318 43.7638C93.1185 43.6072 92.8194 43.5248 92.4205 43.5248C92.0216 43.5248 91.6892 43.6072 91.4565 43.7803C91.3069 43.8874 91.2321 44.0275 91.2321 44.2088C91.2321 44.3737 91.2986 44.5138 91.4398 44.6292C91.6227 44.7775 92.0548 44.9341 92.7446 45.0907C93.4343 45.2555 93.9413 45.4204 94.2737 45.5934C94.6061 45.7665 94.8637 46.0055 95.0465 46.3022C95.2294 46.5989 95.3291 46.9698 95.3291 47.4066C95.3291 47.8022 95.2211 48.1814 94.9967 48.5275C94.7723 48.8737 94.4565 49.1374 94.0493 49.3022C93.6421 49.4753 93.1352 49.5577 92.5202 49.5577C91.631 49.5577 90.9495 49.3517 90.4758 48.9478C90.0021 48.544 89.7196 47.9506 89.6199 47.1676L89.6116 47.1923Z" fill="#4C4D4E"/>
<path d="M98.8361 44.4149V45.4781H97.9137V47.5138C97.9137 47.9259 97.922 48.1649 97.9386 48.2308C97.9552 48.2967 97.9968 48.3544 98.0549 48.3956C98.1214 48.4368 98.1962 48.4616 98.2793 48.4616C98.404 48.4616 98.5868 48.4204 98.8195 48.3297L98.9359 49.3682C98.6201 49.5 98.271 49.566 97.8721 49.566C97.6311 49.566 97.415 49.5248 97.2156 49.4423C97.0245 49.3599 96.8749 49.261 96.7834 49.1291C96.692 48.9973 96.6256 48.8242 96.5923 48.6099C96.5674 48.4533 96.5508 48.1401 96.5508 47.6704V45.4698H95.9358V44.4066H96.5508V43.4094L97.8971 42.6346V44.4149H98.8195H98.8361Z" fill="#4C4D4E"/>
<path d="M100.772 45.9561L99.5507 45.7418C99.692 45.2555 99.9247 44.8929 100.257 44.6621C100.59 44.4314 101.088 44.3077 101.753 44.3077C102.351 44.3077 102.8 44.3819 103.091 44.522C103.382 44.6621 103.59 44.8435 103.714 45.0577C103.831 45.272 103.897 45.6759 103.897 46.2528L103.88 47.8105C103.88 48.2555 103.905 48.577 103.947 48.7913C103.988 49.0055 104.072 49.2281 104.188 49.4671H102.858C102.825 49.3764 102.783 49.2446 102.725 49.0715C102.7 48.9891 102.684 48.9396 102.675 48.9149C102.443 49.1374 102.202 49.3022 101.936 49.4094C101.678 49.5165 101.396 49.5742 101.096 49.5742C100.573 49.5742 100.157 49.4341 99.8582 49.1539C99.559 48.8737 99.4094 48.5193 99.4094 48.0825C99.4094 47.794 99.4759 47.5467 99.6172 47.3242C99.7585 47.1017 99.9496 46.9286 100.191 46.8132C100.44 46.6978 100.797 46.5907 101.263 46.5C101.894 46.3847 102.326 46.2775 102.567 46.1704V46.0385C102.567 45.783 102.501 45.6017 102.376 45.4863C102.252 45.3792 102.011 45.3215 101.653 45.3215C101.412 45.3215 101.229 45.3709 101.096 45.4616C100.963 45.5522 100.855 45.7171 100.772 45.9561ZM102.567 47.0358C102.393 47.0935 102.119 47.1594 101.753 47.2418C101.379 47.3242 101.138 47.3984 101.022 47.4726C100.847 47.5962 100.756 47.7528 100.756 47.9424C100.756 48.1319 100.822 48.2885 100.963 48.4286C101.105 48.5687 101.279 48.6347 101.504 48.6347C101.745 48.6347 101.977 48.5522 102.202 48.3957C102.368 48.272 102.468 48.1319 102.526 47.9506C102.559 47.8352 102.576 47.6209 102.576 47.2995V47.0358H102.567Z" fill="#4C4D4E"/>
<path d="M105.16 49.4588V42.5028H106.506V45.0083C106.922 44.5385 107.412 44.3078 107.977 44.3078C108.592 44.3078 109.108 44.5303 109.515 44.9753C109.922 45.4204 110.121 46.055 110.121 46.8874C110.121 47.7198 109.914 48.4121 109.498 48.8737C109.083 49.3352 108.584 49.5742 107.994 49.5742C107.703 49.5742 107.421 49.5001 107.138 49.3599C106.855 49.2198 106.614 49.0056 106.407 48.7253V49.4671H105.16V49.4588ZM106.498 46.8297C106.498 47.349 106.581 47.7363 106.747 47.9918C106.98 48.3462 107.288 48.5275 107.678 48.5275C107.977 48.5275 108.227 48.4039 108.434 48.1484C108.642 47.9012 108.75 47.4973 108.75 46.9616C108.75 46.3847 108.642 45.9726 108.434 45.7171C108.227 45.4616 107.952 45.338 107.628 45.338C107.304 45.338 107.038 45.4616 106.822 45.7089C106.606 45.9561 106.498 46.3352 106.498 46.838V46.8297Z" fill="#4C4D4E"/>
<path d="M111.202 43.7308V42.4945H112.548V43.7308H111.202ZM111.202 49.4588V44.4148H112.548V49.4588H111.202Z" fill="#4C4D4E"/>
<path d="M113.928 49.4588V42.5028H115.274V49.4588H113.928Z" fill="#4C4D4E"/>
<path d="M116.654 43.7308V42.4945H118V43.7308H116.654ZM116.654 49.4588V44.4148H118V49.4588H116.654Z" fill="#4C4D4E"/>
<path d="M121.706 44.4149V45.4781H120.784V47.5138C120.784 47.9259 120.792 48.1649 120.809 48.2308C120.825 48.2967 120.867 48.3544 120.925 48.3956C120.992 48.4368 121.066 48.4616 121.149 48.4616C121.274 48.4616 121.457 48.4204 121.69 48.3297L121.806 49.3682C121.49 49.5 121.141 49.566 120.742 49.566C120.501 49.566 120.285 49.5248 120.086 49.4423C119.895 49.3599 119.745 49.261 119.654 49.1291C119.562 48.9973 119.496 48.8242 119.462 48.6099C119.438 48.4533 119.421 48.1401 119.421 47.6704V45.4698H118.806V44.4066H119.421V43.4094L120.767 42.6346V44.4149H121.69H121.706Z" fill="#4C4D4E"/>
<path d="M122.005 44.4149H123.435L124.648 47.9918L125.836 44.4149H127.233L125.438 49.2693L125.113 50.1512C124.997 50.4479 124.881 50.6704 124.773 50.827C124.665 50.9836 124.54 51.1072 124.407 51.2061C124.266 51.305 124.1 51.3792 123.892 51.4287C123.692 51.4863 123.46 51.5111 123.202 51.5111C122.944 51.5111 122.687 51.4863 122.438 51.4287L122.321 50.382C122.529 50.4232 122.72 50.4479 122.895 50.4479C123.21 50.4479 123.435 50.3572 123.584 50.1759C123.734 49.9946 123.85 49.7638 123.925 49.4836L121.989 44.4314L122.005 44.4149Z" fill="#4C4D4E"/>
<path d="M91.7639 60.5687L89.2542 53.6127H90.7916L92.57 58.7638L94.2902 53.6127H95.7944L93.2847 60.5687H91.7722H91.7639Z" fill="#4C4D4E"/>
<path d="M96.3262 54.8489V53.6127H97.6724V54.8489H96.3262ZM96.3262 60.5687V55.5248H97.6724V60.5687H96.3262Z" fill="#4C4D4E"/>
<path d="M98.5784 59.1347L99.9246 58.9287C99.9828 59.1841 100.099 59.3819 100.274 59.5221C100.448 59.6539 100.698 59.7199 101.013 59.7199C101.362 59.7199 101.62 59.6539 101.794 59.5303C101.911 59.4396 101.969 59.3243 101.969 59.1759C101.969 59.077 101.936 58.9946 101.869 58.9204C101.803 58.8545 101.653 58.7968 101.421 58.7473C100.332 58.5083 99.6504 58.294 99.3595 58.0962C98.9606 57.8243 98.7529 57.4451 98.7529 56.9589C98.7529 56.5221 98.9274 56.1512 99.2764 55.8545C99.6255 55.5578 100.166 55.4094 100.897 55.4094C101.628 55.4094 102.11 55.5248 102.451 55.7473C102.792 55.9699 103.024 56.3078 103.149 56.7446L101.878 56.9754C101.819 56.7776 101.72 56.6292 101.57 56.5221C101.421 56.4149 101.204 56.3655 100.922 56.3655C100.565 56.3655 100.315 56.4149 100.157 56.5138C100.058 56.5798 100.008 56.6704 100.008 56.7858C100.008 56.8847 100.049 56.9589 100.141 57.0248C100.265 57.1155 100.681 57.2391 101.396 57.3957C102.11 57.5523 102.609 57.7583 102.9 57.9891C103.182 58.2281 103.324 58.5578 103.324 58.9781C103.324 59.4396 103.132 59.8352 102.742 60.1732C102.351 60.5028 101.778 60.6677 101.013 60.6677C100.324 60.6677 99.7751 60.5276 99.3679 60.2473C98.9607 59.9671 98.703 59.588 98.5784 59.11V59.1347Z" fill="#4C4D4E"/>
<path d="M104.504 54.8489V53.6127H105.85V54.8489H104.504ZM104.504 60.5687V55.5248H105.85V60.5687H104.504Z" fill="#4C4D4E"/>
<path d="M106.914 57.9808C106.914 57.5357 107.022 57.1072 107.246 56.6951C107.471 56.283 107.778 55.9616 108.185 55.7473C108.593 55.5247 109.041 55.4176 109.54 55.4176C110.313 55.4176 110.936 55.6649 111.426 56.1594C111.917 56.6539 112.166 57.2802 112.166 58.0385C112.166 58.7967 111.917 59.4313 111.418 59.9341C110.919 60.4368 110.296 60.6841 109.548 60.6841C109.083 60.6841 108.634 60.5769 108.219 60.3709C107.803 60.1649 107.471 59.8599 107.255 59.4561C107.038 59.0522 106.922 58.5577 106.922 57.9808H106.914ZM108.293 58.0467C108.293 58.5495 108.41 58.9286 108.651 59.1923C108.892 59.4561 109.183 59.5879 109.54 59.5879C109.897 59.5879 110.188 59.4561 110.421 59.1923C110.653 58.9286 110.778 58.5412 110.778 58.0302C110.778 57.5193 110.662 57.1566 110.421 56.8929C110.18 56.6291 109.889 56.4973 109.54 56.4973C109.191 56.4973 108.892 56.6291 108.651 56.8929C108.41 57.1566 108.293 57.544 108.293 58.0385V58.0467Z" fill="#4C4D4E"/>
<path d="M117.833 60.5687H116.487V57.9973C116.487 57.4533 116.462 57.0989 116.404 56.9423C116.346 56.7857 116.255 56.6621 116.122 56.5714C115.989 56.4808 115.839 56.4396 115.656 56.4396C115.423 56.4396 115.216 56.5055 115.033 56.6291C114.85 56.7528 114.717 56.9258 114.651 57.1319C114.584 57.3379 114.551 57.7253 114.551 58.294V60.5769H113.205V55.533H114.451V56.2747C114.892 55.7061 115.457 55.4176 116.13 55.4176C116.429 55.4176 116.695 55.4671 116.944 55.5742C117.194 55.6813 117.376 55.8132 117.501 55.978C117.626 56.1429 117.717 56.3324 117.767 56.5385C117.817 56.7445 117.842 57.0495 117.842 57.4368V60.5687H117.833Z" fill="#4C4D4E"/>
<path d="M7.16426 21.8159C3.39135 10.3022 13.9622 0 27.7574 0C38.2285 0 46.5638 7.64835 44.3449 18.9973C43.1732 24.8736 39.6163 29.2995 35.3364 32.761C33.1591 34.4506 30.9153 35.9835 28.4472 37.2692C25.3806 38.8764 14.3694 43.1456 11.6685 45.239L27.5746 45.3214C35.0788 44.9176 39.6828 43.3104 42.9238 39.6841H43.331L39.0928 57.3132H0.856689C1.99521 51.7582 5.22796 48.2143 9.40808 44.9918C11.4109 43.4588 13.6547 41.9341 15.9816 40.4011C20.7102 37.4258 24.9402 33.6346 28.3225 28.4093C29.9264 25.8297 31.1065 22.6154 31.763 18.8324C33.4084 10.294 30.7076 2.25 23.4859 2.25C22.5135 2.25 21.4415 2.41484 20.278 2.73626C13.1228 4.74725 11.8846 14.1676 19.3224 21.8159H7.14765H7.16426Z" fill="url(#paint0_linear_2015_184)"/>
<path d="M64.1154 40.6319C70.2318 38.827 74.6862 33.2143 74.6862 26.5632C74.6862 25.3517 74.5366 24.1649 74.2541 23.044C72.7665 13.5495 64.4894 6.28851 54.5003 6.28851C48.7163 6.28851 43.4974 8.72807 39.8491 12.6264C44.2786 6.37917 51.6 2.29126 59.8854 2.29126C63.8744 2.29126 67.639 3.23906 70.9715 4.92038C75.8247 8.21708 79.1738 13.5907 79.6392 19.8544C80.3705 29.7775 73.6059 38.522 64.1154 40.6402V40.6319Z" fill="url(#paint1_linear_2015_184)"/>
<path d="M82.5146 35.8599C78.8414 44.6538 70.0906 50.8434 59.8938 50.8434C56.5779 50.8434 53.4117 50.1841 50.5196 48.9972C45.816 46.3187 42.2093 41.761 40.9461 36.0907C38.6524 25.8297 44.8187 15.6676 54.841 12.7665C49.3977 14.728 45.442 19.772 45.1179 25.772C45.1013 26.0357 45.093 26.2994 45.093 26.5632C45.093 27.783 45.2426 28.9615 45.5251 30.0989C47.6443 40.3187 57.4671 47.25 68.0047 45.717C74.3538 44.794 79.5644 41.0027 82.5063 35.8599H82.5146Z" fill="url(#paint2_linear_2015_184)"/>
<path d="M84.3761 26.5632C84.3761 29.8517 83.7113 32.9918 82.5146 35.8599C79.5811 41.0028 74.3705 44.7857 68.013 45.7171C57.4671 47.25 47.6443 40.3269 45.5334 30.0989C47.129 36.4945 52.9546 41.2418 59.8938 41.2418C61.3564 41.2418 62.7775 41.0275 64.1154 40.6319C73.6142 38.5138 80.3706 29.7692 79.6392 19.8462C79.1822 13.5824 75.8248 8.20881 70.9715 4.91211C78.9162 8.92585 84.3595 17.1099 84.3595 26.5632H84.3761Z" fill="url(#paint3_linear_2015_184)"/>
<path d="M74.2624 23.044C72.6751 16.6402 66.8412 11.8929 59.8937 11.8929C58.1236 11.8929 56.4283 12.1979 54.8577 12.7665C54.8577 12.7665 54.8493 12.7665 54.841 12.7665C44.8187 15.6676 38.6524 25.838 40.9461 36.0907C42.2176 41.761 45.816 46.3187 50.5196 48.9973C41.6525 45.3462 35.4114 36.6759 35.4114 26.5632C35.4114 21.3709 37.0568 16.566 39.8491 12.6182C43.4974 8.71983 48.7163 6.28027 54.5003 6.28027C64.4894 6.28027 72.7665 13.5413 74.2541 23.0358L74.2624 23.044Z" fill="url(#paint4_linear_2015_184)"/>
<path d="M53.7688 54.8983H55.4059L56.7938 58.9862L58.1484 54.8983H59.744L57.6913 60.445L57.3256 61.4505C57.1927 61.7884 57.0597 62.0439 56.9433 62.217C56.827 62.3901 56.6774 62.5384 56.5195 62.6456C56.3616 62.7527 56.1622 62.8434 55.9378 62.9011C55.7134 62.9588 55.4475 62.9917 55.1566 62.9917C54.8658 62.9917 54.5749 62.9588 54.284 62.9011L54.1511 61.706C54.3921 61.7555 54.6081 61.7802 54.7993 61.7802C55.1566 61.7802 55.4226 61.673 55.5888 61.467C55.755 61.261 55.8879 60.9972 55.9794 60.6758L53.7688 54.8983Z" fill="#E31F26"/>
<path d="M64.0903 58.8297L65.6194 59.0852C65.42 59.6457 65.1125 60.066 64.6887 60.3545C64.2649 60.6429 63.733 60.7913 63.0931 60.7913C62.0792 60.7913 61.3313 60.4616 60.8493 59.8105C60.467 59.283 60.2759 58.6237 60.2759 57.8242C60.2759 56.8682 60.5252 56.1182 61.0321 55.5825C61.5391 55.0468 62.1706 54.7748 62.9435 54.7748C63.8078 54.7748 64.4893 55.055 64.9879 55.6237C65.4865 56.1924 65.7275 57.0577 65.7026 58.2281H61.8548C61.8632 58.6814 61.9878 59.0358 62.2288 59.283C62.4698 59.5303 62.7607 59.6621 63.118 59.6621C63.359 59.6621 63.5585 59.5962 63.7247 59.4643C63.8909 59.3325 64.0156 59.1264 64.0987 58.838L64.0903 58.8297ZM64.1818 57.2885C64.1735 56.8435 64.0571 56.5138 63.841 56.283C63.625 56.0523 63.359 55.9369 63.0432 55.9369C62.7108 55.9369 62.4283 56.0605 62.2122 56.2995C61.9961 56.5385 61.8881 56.8682 61.8881 57.2885H64.1818Z" fill="#E31F26"/>
<path d="M68.1041 56.6621L66.7079 56.4149C66.8658 55.8544 67.1318 55.4424 67.514 55.1786C67.8963 54.9149 68.4698 54.7748 69.2177 54.7748C69.8991 54.7748 70.4144 54.8572 70.7468 55.0138C71.0792 55.1704 71.3202 55.3764 71.4532 55.6237C71.5862 55.8709 71.6609 56.3242 71.6609 56.9918L71.6443 58.772C71.6443 59.2748 71.6693 59.6539 71.7191 59.8929C71.769 60.1319 71.8604 60.3874 71.9934 60.6676H70.4726C70.431 60.5687 70.3811 60.4204 70.323 60.2143C70.298 60.1237 70.2814 60.066 70.2648 60.033C69.9989 60.2885 69.7246 60.4781 69.4255 60.6017C69.1263 60.7253 68.8105 60.7913 68.4698 60.7913C67.8714 60.7913 67.3977 60.6264 67.057 60.305C66.7163 59.9836 66.5417 59.5797 66.5417 59.0852C66.5417 58.7638 66.6165 58.4671 66.7744 58.2116C66.9323 57.9561 67.1484 57.7583 67.431 57.6264C67.7135 57.4946 68.1207 57.3709 68.6526 57.272C69.3673 57.1402 69.8659 57.0165 70.1484 56.9012V56.7528C70.1484 56.4561 70.0736 56.2501 69.9324 56.1264C69.7911 56.0028 69.5085 55.9369 69.1097 55.9369C68.8354 55.9369 68.6193 55.9863 68.4698 56.0935C68.3202 56.2006 68.1955 56.3902 68.0958 56.6539L68.1041 56.6621ZM70.1651 57.8984C69.9656 57.9643 69.6581 58.0385 69.226 58.1292C68.7939 58.2198 68.5196 58.3105 68.3867 58.3929C68.1872 58.533 68.0875 58.7143 68.0875 58.9286C68.0875 59.1429 68.1706 59.3242 68.3285 59.4808C68.4864 59.6374 68.6941 59.7116 68.9434 59.7116C69.2177 59.7116 69.4836 59.6209 69.7329 59.4396C69.9158 59.2995 70.0404 59.1347 70.0986 58.9369C70.1401 58.805 70.1568 58.5577 70.1568 58.1951V57.8902L70.1651 57.8984Z" fill="#E31F26"/>
<path d="M74.661 60.6593H73.1235V54.8984H74.5529V55.7143C74.7939 55.3269 75.0183 55.0714 75.2094 54.9478C75.4006 54.8242 75.625 54.7665 75.8743 54.7665C76.2233 54.7665 76.564 54.8654 76.8881 55.0549L76.4145 56.3819C76.1568 56.217 75.9158 56.1346 75.6915 56.1346C75.4671 56.1346 75.2926 56.1923 75.143 56.3077C74.9934 56.4231 74.877 56.6374 74.7939 56.9423C74.7108 57.2472 74.6693 57.8901 74.6693 58.8709V60.6511L74.661 60.6593Z" fill="#E31F26"/>
<path d="M77.0047 59.0192L78.5504 58.7885C78.6169 59.0852 78.7498 59.3077 78.9493 59.4643C79.1487 59.6209 79.4313 59.695 79.7886 59.695C80.1875 59.695 80.4867 59.6209 80.6861 59.4808C80.8191 59.3819 80.8856 59.2417 80.8856 59.0769C80.8856 58.9615 80.8524 58.8626 80.7776 58.7885C80.7028 58.7143 80.5283 58.6483 80.2623 58.5906C79.0241 58.3187 78.2346 58.0714 77.9022 57.8489C77.4451 57.5357 77.2124 57.1071 77.2124 56.5549C77.2124 56.0522 77.4119 55.6401 77.8108 55.2939C78.2097 54.9478 78.8246 54.783 79.6557 54.783C80.4867 54.783 81.0435 54.9148 81.4258 55.1703C81.8081 55.4258 82.0823 55.8049 82.2236 56.3077L80.7776 56.5714C80.7194 56.3489 80.5947 56.1758 80.4285 56.0522C80.2623 55.9286 80.0047 55.8709 79.6889 55.8709C79.2817 55.8709 78.9908 55.9286 78.8163 56.0357C78.7 56.1181 78.6418 56.217 78.6418 56.3489C78.6418 56.456 78.6917 56.5467 78.7914 56.6291C78.9327 56.728 79.4064 56.8764 80.2291 57.0577C81.0518 57.239 81.6169 57.4698 81.941 57.7335C82.2651 58.0055 82.423 58.3846 82.423 58.8709C82.423 59.3983 82.1986 59.8516 81.7582 60.2308C81.3177 60.6099 80.6529 60.7994 79.7803 60.7994C78.9908 60.7994 78.3592 60.6428 77.9022 60.3214C77.4451 60 77.1376 59.5714 76.9963 59.0275L77.0047 59.0192Z" fill="#E31F26"/>
<defs>
<linearGradient id="paint0_linear_2015_184" x1="0.865" y1="28.6648" x2="44.7106" y2="28.6648" gradientUnits="userSpaceOnUse">
<stop stop-color="#E31F26"/>
<stop offset="0.24" stop-color="#DD1D24"/>
<stop offset="0.55" stop-color="#CC1A20"/>
<stop offset="0.91" stop-color="#B11419"/>
<stop offset="1" stop-color="#A91317"/>
</linearGradient>
<linearGradient id="paint1_linear_2015_184" x1="46.165" y1="3.2473" x2="76.6233" y2="31.3313" gradientUnits="userSpaceOnUse">
<stop stop-color="#9B9492"/>
<stop offset="0.21" stop-color="#918B89"/>
<stop offset="0.55" stop-color="#787472"/>
<stop offset="0.98" stop-color="#504E4D"/>
<stop offset="1" stop-color="#4F4D4C"/>
</linearGradient>
<linearGradient id="paint2_linear_2015_184" x1="80.7944" y1="42.2637" x2="39.0181" y2="25.068" gradientUnits="userSpaceOnUse">
<stop stop-color="#E31F26"/>
<stop offset="0.24" stop-color="#DD1D24"/>
<stop offset="0.55" stop-color="#CC1A20"/>
<stop offset="0.91" stop-color="#B11419"/>
<stop offset="1" stop-color="#A91317"/>
</linearGradient>
<linearGradient id="paint3_linear_2015_184" x1="75.0685" y1="6.03299" x2="58.642" y2="46.7928" gradientUnits="userSpaceOnUse">
<stop stop-color="#9B9492"/>
<stop offset="0.21" stop-color="#918B89"/>
<stop offset="0.55" stop-color="#787472"/>
<stop offset="0.98" stop-color="#504E4D"/>
<stop offset="1" stop-color="#4F4D4C"/>
</linearGradient>
<linearGradient id="paint4_linear_2015_184" x1="47.0044" y1="48.3627" x2="59.9616" y2="5.69265" gradientUnits="userSpaceOnUse">
<stop stop-color="#E31F26"/>
<stop offset="0.24" stop-color="#DD1D24"/>
<stop offset="0.55" stop-color="#CC1A20"/>
<stop offset="0.91" stop-color="#B11419"/>
<stop offset="1" stop-color="#A91317"/>
</linearGradient>
</defs>
</svg>
