<svg width="137" height="49" viewBox="0 0 137 49" fill="none" xmlns="http://www.w3.org/2000/svg">
<path d="M39.3019 0H8.69378C3.89335 0 0 3.93041 0 8.77335V39.6409C0 44.4773 3.89335 48.4034 8.69378 48.4034H39.3019C44.1045 48.4034 48 44.4773 48 39.6409V8.77335C48 3.93041 44.1045 0 39.3019 0ZM42.9022 38.4893C42.9022 41.1661 40.7584 43.3431 38.1104 43.3431H31.3859V24.3538H38.3991V19.2153H26.2903V43.3431H21.7118V19.2153H9.59871V24.3538H16.6162V43.3431H9.89173C7.24374 43.3431 5.09561 41.1683 5.09561 38.4893V9.91619C5.09561 7.23943 7.24158 5.06673 9.89173 5.06673H38.1126C40.7606 5.06673 42.9044 7.23943 42.9044 9.91619V38.4893H42.9022ZM9.59655 14.6701H38.397V9.53163H9.59655V14.6701Z" fill="#E31F26"/>
<path d="M57.6333 33.8657C57.6333 29.5117 58.8162 26.1179 61.1798 23.6888C63.5412 21.2684 66.8334 20.0496 71.0478 20.0496C75.2622 20.0496 78.7074 21.2424 81.0451 23.628C83.3828 26.0114 84.5549 29.3487 84.5549 33.6441C84.5549 36.7598 84.0421 39.3214 83.0209 41.3138C82.0017 43.3083 80.5258 44.8618 78.5932 45.9698C76.6605 47.0823 74.2538 47.6385 71.371 47.6385C68.4881 47.6385 66.019 47.1605 64.0971 46.198C62.1773 45.242 60.6196 43.7255 59.4259 41.6505C58.2344 39.5778 57.6355 36.9814 57.6355 33.8657H57.6333ZM65.6635 33.9005C65.6635 36.5925 66.1504 38.5262 67.1243 39.706C68.1003 40.8836 69.4254 41.4702 71.1017 41.4702C72.7779 41.4702 74.1612 40.8944 75.1049 39.7407C76.0508 38.5914 76.5248 36.523 76.5248 33.5377C76.5248 31.0239 76.0292 29.1901 75.0446 28.0342C74.0556 26.8783 72.7198 26.2939 71.0284 26.2939C69.337 26.2939 68.1089 26.8805 67.1286 28.0603C66.1482 29.2336 65.6592 31.1825 65.6592 33.9005H65.6635Z" fill="#4C4D4E"/>
<path d="M86.1125 20.5081H110.513V27.0935H102.326V47.1844H94.2978V27.0935H86.1104V20.5081H86.1125Z" fill="#4C4D4E"/>
<path d="M112.323 20.5081H136.724V27.0935H128.537V47.1844H120.506V27.0935H112.323V20.5081Z" fill="#4C4D4E"/>
</svg>
